<svg xmlns="http://www.w3.org/2000/svg" xmlns:xlink="http://www.w3.org/1999/xlink" version="1.1" x="0px" y="0px" viewBox="0 0 64 80" style="enable-background:new 0 0 64 64;" xml:space="preserve"><g><circle cx="44" cy="36" r="1"/><circle cx="32" cy="22" r="1"/><circle cx="12" cy="14" r="1"/><circle cx="26" cy="42" r="1"/><circle cx="12" cy="38" r="1"/><rect x="11" y="43" width="2" height="4"/><path d="M38.175,19H38v2h0.175c0.587,0,1.148-0.119,1.67-0.322C41.469,23.344,44.406,25,47.529,25H63v-2H47.529   c-2.444,0-4.745-1.302-6.002-3.398l-0.018-0.03c0.541-0.565,0.946-1.268,1.146-2.07L43.281,15H41v-1.092   c0-2.1-0.616-4.134-1.781-5.883C38.791,7.383,38.074,7,37.303,7C36.033,7,35,8.033,35,9.303c0,1.524-0.503,3.036-1.418,4.255   L32.5,15h-0.086c-0.406,0-0.8,0.047-1.185,0.125l-2.505-5.367C26.241,4.438,20.843,1,14.972,1C11.54,1,8.173,2.181,5.493,4.326   l-1.8,1.439l2.932,4.886c-0.663,0.768-1.236,1.62-1.669,2.56l-4.085,8.85l3.796,6.327l8.377-5.235   c0.159-0.1,0.342-0.152,0.53-0.152h0.531l0.689,6.198c-0.275,0.089-0.543,0.2-0.794,0.347C13.393,29.19,12.705,29,12,29   c-2.206,0-4,1.794-4,4c0,0.75,0.218,1.458,0.599,2.078c-0.514,0.573-0.922,1.239-1.197,1.973c-1.965,0.244-3.608,1.655-4.099,3.617   L2.719,43H7v6H1v14h62V49H51v-1.764c0-1.019-0.153-2.021-0.443-2.991C52.065,42.989,53,41.102,53,39h-2   c0,2.4-1.722,4.407-4.094,4.772l-7.542,1.16C37.836,43.233,37,41.06,37,38.757v-0.139l2.536-1.268   c0.855-0.427,1.46-1.246,1.618-2.19l0.275-1.653C41.671,32.054,42.916,31,44.389,31H45v1.395c0,1.34,0.666,2.584,1.781,3.328   L49,37.202l2.219-1.479C52.334,34.979,53,33.734,53,32.395v-0.662c0.452,0.373,0.809,0.858,1,1.43l0.14,0.419   C54.821,35.626,56.728,37,58.883,37H63v-2h-4.117c-1.293,0-2.437-0.824-2.846-2.051l-0.14-0.419   c-0.521-1.561-1.767-2.772-3.315-3.273C51.932,27.926,50.578,27,49,27c-1.474,0-2.75,0.81-3.444,2h-1.168   c-2.455,0-4.529,1.757-4.932,4.178l-0.275,1.652c-0.053,0.315-0.254,0.588-0.54,0.73l-0.951,0.476   C37.245,35.273,37,34.398,37,33.485c0-1.357-0.388-2.653-1.104-3.769C37.765,28.902,39,27.069,39,25h-2   c0,1.363-0.869,2.569-2.163,3l-1.968,0.656c-0.97,0.323-1.806,0.926-2.418,1.743l-1.05,1.4C28.837,32.551,27.939,33,27,33   c-0.462,0-0.894-0.113-1.285-0.301l2.992-2.992l-1.414-1.414l-2.992,2.992C24.113,30.894,24,30.462,24,30v-2   c0-0.313,0.149-0.612,0.4-0.8l1.502-1.126c1.295-0.971,2.153-2.45,2.354-4.056l0.189-1.514C28.694,18.506,30.401,17,32.414,17H33.5   l1.682-2.242c0.309-0.412,0.579-0.851,0.813-1.308L39,14.597v0.42c-1.664,0.084-3.143,1.033-3.895,2.536l1.789,0.895   C37.341,17.555,38.238,17,39.236,17h1.483l-0.004,0.017C40.423,18.185,39.379,19,38.175,19z M57,51h4v4h-4V51z M57,57h4v4h-4V57z    M53,51h2v10h-2V51z M47,31c0-1.103,0.897-2,2-2s2,0.897,2,2v1.395c0,0.67-0.333,1.292-0.891,1.664L49,34.798l-1.109-0.74   C47.333,33.687,47,33.064,47,32.395V31z M26.403,9.632c0.181,0.316,0.353,0.638,0.509,0.971l1.068,2.289l-3.184,1.592l-0.257-0.669   c-0.251-0.654-0.558-1.278-0.908-1.872L26.403,9.632z M25.27,7.973l-2.798,2.331c-0.58-0.698-1.236-1.329-1.957-1.888l1.869-3.114   C23.468,6.041,24.443,6.939,25.27,7.973z M20.652,4.303l-1.703,2.839c-0.145-1.409-0.641-2.74-1.453-3.888   C18.595,3.47,19.654,3.824,20.652,4.303z M13.585,3.083l-1.356,4.068c-0.01,0.003-0.02,0.007-0.031,0.01l-1.688-3.375   C11.501,3.429,12.534,3.195,13.585,3.083z M6.307,6.235l0.435-0.348C7.351,5.4,8.003,4.974,8.684,4.604l1.626,3.252   C9.52,8.226,8.778,8.682,8.1,9.223L6.307,6.235z M12,31c0.621,0,1.066,0.284,1.331,0.521L14,32.124l0.669-0.602   C14.934,31.284,15.379,31,16,31c1.103,0,2,0.897,2,2c0,0.601-0.268,1.153-0.71,1.526C16.185,33.572,14.764,33,13.23,33   c-1.112,0-2.154,0.296-3.059,0.809C10.06,33.557,10,33.284,10,33C10,31.897,10.897,31,12,31z M9,39.23C9,36.898,10.898,35,13.23,35   c1.823,0,3.436,1.163,4.013,2.893l0.808,2.424c0.188,0.565,0.449,1.093,0.762,1.59c-0.649,0.531-1.137,1.262-1.352,2.123L16.719,47   h5.044l2,1c0.442,0.221,0.77,0.579,0.982,1H9V39.23z M19.281,45l0.122-0.485c0.194-0.779,0.828-1.352,1.598-1.485V45H19.281z    M5.286,41c0.264-0.854,0.909-1.51,1.717-1.813C7.002,39.201,7,39.216,7,39.23V41H5.286z M5,61H3V51h2V61z M11,61H7v-4h4V61z    M11,55H7v-4h4V55z M15,61h-2V51h2V61z M21,61h-4v-4h4V61z M21,55h-4v-4h4V55z M25,61h-2V51h2V61z M24.658,46.211L23,45.382V43   c0-2.206,1.794-4,4-4s4,1.794,4,4v0.528c0,2.071,0.771,3.993,2.093,5.472h-6.219C26.585,47.803,25.795,46.78,24.658,46.211z M31,61   h-4v-4h4V61z M31,55h-4v-4h4V55z M35,61h-2V51h2V61z M41,61h-4v-4h4V61z M41,55h-4v-4h4V55z M45,61h-2V51h2V61z M51,61h-4v-4h4V61z    M51,51v4h-4v-4H51z M24.702,24.474L23.199,25.6C22.448,26.164,22,27.061,22,28v2c0,2.757,2.243,5,5,5c1.565,0,3.061-0.748,4-2   l1.051-1.401c0.367-0.49,0.869-0.852,1.451-1.045l0.416-0.139c0.689,0.877,1.082,1.943,1.082,3.1c0,1.201,0.314,2.38,0.895,3.42   L35,37.382v1.375c0,3.003,1.169,5.826,3.293,7.95l0.358,0.358l8.559-1.317c0.548-0.084,1.068-0.236,1.56-0.437   c0.147,0.629,0.23,1.272,0.23,1.924V49H36.268C34.251,47.908,33,45.835,33,43.528V43c0-3.309-2.691-6-6-6   c-2.607,0-4.824,1.673-5.65,4h-0.008c-0.228,0-0.451,0.02-0.67,0.056c-0.3-0.424-0.558-0.875-0.724-1.373l-0.808-2.424   c-0.143-0.428-0.342-0.822-0.566-1.199C19.464,35.314,20,34.205,20,33c0-1.934-1.38-3.551-3.207-3.92l-0.678-6.102   c2.206-0.114,4.129-1.547,4.834-3.662l-1.897-0.633C18.589,20.069,17.298,21,15.838,21h-2.264c-0.563,0-1.113,0.158-1.59,0.456   l-6.65,4.156l-2.204-3.673l3.642-7.89c1.205-2.61,3.607-4.504,6.425-5.068l0.569-0.114l1.665-4.996C16.441,5.013,17,6.462,17,8   v0.618l0.553,0.276c2.356,1.178,4.174,3.18,5.12,5.638l3.237,8.418C25.633,23.544,25.231,24.076,24.702,24.474z M26.663,19.337   l-1.145-2.978l3.308-1.654l0.532,1.14C28.069,16.612,27.093,17.851,26.663,19.337z M36.704,11.58C36.896,10.838,37,10.072,37,9.303   c0-0.268,0.406-0.392,0.555-0.168c0.662,0.994,1.092,2.105,1.298,3.265L36.704,11.58z"/></g><text x="0" y="79" fill="#000000" font-size="5px" font-weight="bold" font-family="'Helvetica Neue', Helvetica, Arial-Unicode, Arial, Sans-serif">Created by Eucalyp</text><text x="0" y="84" fill="#000000" font-size="5px" font-weight="bold" font-family="'Helvetica Neue', Helvetica, Arial-Unicode, Arial, Sans-serif">from the Noun Project</text></svg>