<svg xmlns="http://www.w3.org/2000/svg" viewBox="0 0 64 80" x="0px" y="0px"><g><path d="M56.81,22C55.62,13.86,47.33,7.9,37.55,8.18a21.73,21.73,0,0,0-2.79.24A22,22,0,0,0,20,17.1a13.69,13.69,0,0,0-2.4,10.72c.9,4.26-1.31,5.34-5,6.75-2.43.94-4.95,1.9-5.44,4.56-.2,1.06-.08,2.2-.1,7.29a7.17,7.17,0,0,0,3.43,6.45c2.54,1.77,6.62,3,11.61,3a38.79,38.79,0,0,0,15.83-3.62c12.8-5.78,19-12.66,19.07-21V25.6A18.25,18.25,0,0,0,56.81,22ZM9.08,39.49c.27-1.45,1.77-2.12,4.2-3.05,3.18-1.22,7.54-2.88,6.23-9a11.63,11.63,0,0,1,2.09-9.17A20,20,0,0,1,35.05,10.4a19.79,19.79,0,0,1,2.56-.22c8.79-.21,16.18,5,17.22,12.11A19.23,19.23,0,0,1,55,25.45c-.46,7.16-6.35,13.21-17.9,18.42-11.06,5-21.37,4.05-25.84.55A5,5,0,0,1,9.08,39.49Zm28,10.9c-10.64,4.8-20.86,4.06-25.46.84A5.33,5.33,0,0,1,9,46.49V45.1A10.34,10.34,0,0,0,10,46c2.59,2,6.87,3.3,12.05,3.3a38.93,38.93,0,0,0,15.86-3.6c8.57-3.87,14.2-8.24,17-13.22C54.23,39.41,48.38,45.29,37.06,50.39Z"/><path d="M17,44.89a23.2,23.2,0,0,0,5,.52,35.71,35.71,0,0,0,14.34-3.28C43.16,39,48,35.6,50.62,31.94A11.87,11.87,0,0,0,53,22.56c-.88-6-7-10.41-14.53-10.49h-.76a20,20,0,0,0-2.33.2,18.76,18.76,0,0,0-11,5.59c-2.59,2.84-3.62,6-2.95,9.14a9.17,9.17,0,0,1-1.18,7.22,10.27,10.27,0,0,1-4.67,3.37c-.67.28-1.3.52-1.85.74-1.23.48-2.65,1.14-2.77,1.89-.14,1,.14,1.41,1,2.26A11.11,11.11,0,0,0,17,44.89Zm.44-2a9.86,9.86,0,0,1-4.09-2.15c5.3-3.06,9.45-3.44,13.8-3.92,1.1-.12,2.18-.24,3.21-.41a8.47,8.47,0,0,0-2.64,5.46c0,.31,0,.61,0,.89A25.46,25.46,0,0,1,17.4,42.94ZM49,30.77c-2.39,3.33-7.08,6.63-13.54,9.54a35.29,35.29,0,0,1-5.79,2c0-.11,0-.21,0-.33.14-2.79,2.54-4.75,5.08-6.83l1.21-1,0,0h0a22.61,22.61,0,0,0,1.89-1.76,7.77,7.77,0,0,0,2.3-6.49,7.78,7.78,0,0,0,2.9-1.6,10.87,10.87,0,0,0,5,1.2,12.11,12.11,0,0,0,3-.37A9.9,9.9,0,0,1,49,30.77ZM36.81,18c3.08,0,5.77,1.49,5.77,3.19s-2.69,3.18-5.77,3.18S31,22.91,31,21.22,33.74,18,36.81,18ZM51,22.85l0,.23a9.42,9.42,0,0,1-6.71-.45,3.59,3.59,0,0,0,.29-1.41c0-2.71-3-4.88-6.9-5.16a10.07,10.07,0,0,1,0-2h.73C45,14.14,50.24,17.83,51,22.85ZM21.81,35.41a11.06,11.06,0,0,0,1.52-8.81c-.53-2.49.32-5,2.47-7.38a16.93,16.93,0,0,1,9.82-5h0a11.3,11.3,0,0,0,0,1.84c-3.79.36-6.63,2.48-6.63,5.13,0,2.9,3.41,5.18,7.77,5.18a11.09,11.09,0,0,0,1.43-.09A5.9,5.9,0,0,1,36.45,31a22.05,22.05,0,0,1-1.86,1.71c-1.67,1.51-4.46,1.81-7.69,2.17a48.86,48.86,0,0,0-5.3.78Z"/></g><text x="0" y="79" fill="#000000" font-size="5px" font-weight="bold" font-family="'Helvetica Neue', Helvetica, Arial-Unicode, Arial, Sans-serif">Created by Lima Studio</text><text x="0" y="84" fill="#000000" font-size="5px" font-weight="bold" font-family="'Helvetica Neue', Helvetica, Arial-Unicode, Arial, Sans-serif">from the Noun Project</text></svg>